<svg width="52" height="52" viewBox="0 0 52 52" fill="none" xmlns="http://www.w3.org/2000/svg">
<path d="M4.55305 35.75H31.197C31.3681 35.7501 31.5376 35.7165 31.6958 35.6511C31.8539 35.5856 31.9976 35.4897 32.1186 35.3686C32.2397 35.2476 32.3356 35.1039 32.4011 34.9458C32.4665 34.7876 32.5001 34.6181 32.5 34.447V30.553C32.5001 30.3819 32.4665 30.2124 32.4011 30.0542C32.3356 29.8961 32.2397 29.7524 32.1186 29.6314C31.9976 29.5103 31.8539 29.4144 31.6958 29.3489C31.5376 29.2835 31.3681 29.2499 31.197 29.25H4.55305C4.38189 29.2499 4.21239 29.2835 4.05423 29.3489C3.89608 29.4144 3.75238 29.5103 3.63136 29.6314C3.51033 29.7524 3.41435 29.8961 3.34892 30.0542C3.28348 30.2124 3.24987 30.3819 3.25 30.553V34.447C3.24987 34.6181 3.28348 34.7876 3.34892 34.9458C3.41435 35.1039 3.51033 35.2476 3.63136 35.3686C3.75238 35.4897 3.89608 35.5856 4.05423 35.6511C4.21239 35.7165 4.38189 35.7501 4.55305 35.75V35.75ZM4.55305 9.75H31.197C31.3681 9.75013 31.5376 9.71652 31.6958 9.65108C31.8539 9.58565 31.9976 9.48967 32.1186 9.36864C32.2397 9.24762 32.3356 9.10392 32.4011 8.94577C32.4665 8.78761 32.5001 8.61811 32.5 8.44695V4.55305C32.5001 4.38189 32.4665 4.21239 32.4011 4.05423C32.3356 3.89608 32.2397 3.75238 32.1186 3.63136C31.9976 3.51033 31.8539 3.41435 31.6958 3.34892C31.5376 3.28348 31.3681 3.24987 31.197 3.25H4.55305C4.38189 3.24987 4.21239 3.28348 4.05423 3.34892C3.89608 3.41435 3.75238 3.51033 3.63136 3.63136C3.51033 3.75238 3.41435 3.89608 3.34892 4.05423C3.28348 4.21239 3.24987 4.38189 3.25 4.55305V8.44695C3.24987 8.61811 3.28348 8.78761 3.34892 8.94577C3.41435 9.10392 3.51033 9.24762 3.63136 9.36864C3.75238 9.48967 3.89608 9.58565 4.05423 9.65108C4.21239 9.71652 4.38189 9.75013 4.55305 9.75V9.75ZM47.125 16.25H4.875C4.44402 16.25 4.0307 16.4212 3.72595 16.726C3.42121 17.0307 3.25 17.444 3.25 17.875V21.125C3.25 21.556 3.42121 21.9693 3.72595 22.274C4.0307 22.5788 4.44402 22.75 4.875 22.75H47.125C47.556 22.75 47.9693 22.5788 48.274 22.274C48.5788 21.9693 48.75 21.556 48.75 21.125V17.875C48.75 17.444 48.5788 17.0307 48.274 16.726C47.9693 16.4212 47.556 16.25 47.125 16.25ZM47.125 42.25H4.875C4.44402 42.25 4.0307 42.4212 3.72595 42.726C3.42121 43.0307 3.25 43.444 3.25 43.875V47.125C3.25 47.556 3.42121 47.9693 3.72595 48.274C4.0307 48.5788 4.44402 48.75 4.875 48.75H47.125C47.556 48.75 47.9693 48.5788 48.274 48.274C48.5788 47.9693 48.75 47.556 48.75 47.125V43.875C48.75 43.444 48.5788 43.0307 48.274 42.726C47.9693 42.4212 47.556 42.25 47.125 42.25Z" fill="white"/>
</svg>
