<svg width="30" height="30" viewBox="0 0 30 30" fill="none" xmlns="http://www.w3.org/2000/svg">
<path fill-rule="evenodd" clip-rule="evenodd" d="M10.9067 0.270439C9.85709 0.0684796 8.25935 -0.073974 7.06104 0.0414314C9.9986 0.824024 12.809 2.27921 14.9369 4.50618C19.1498 8.91683 19.0782 14.8674 13.5344 17.5019C13.0669 17.7237 12.9738 17.9617 13.3517 18.3656C15.3883 20.7585 19.5511 21.6006 23.266 20.452C25.8507 19.6513 28.9638 17.2981 29.5047 15.0081C29.5047 14.9215 29.5029 14.835 29.4976 14.7484C29.365 12.4601 27.4126 10.2187 25.8847 8.65176C24.0452 6.7674 19.0531 1.84103 10.9067 0.270439Z" fill="white"/>
<path d="M17.9496 22.2768C8.00312 21.4689 10.5914 11.6396 10.5914 11.6396C12.5814 11.5567 15.5494 12.846 16.814 13.4447C17.8475 10.6605 16.8946 7.27948 14.2454 4.50614C12.1462 2.30803 9.38055 0.863658 6.48597 0.0738525C-0.0805576 0.885297 4.62799e-05 14.9034 4.62799e-05 14.9034C-0.0107009 30.5373 6.87108 30.0071 7.80609 29.9963C17.9496 29.8773 29.5047 19.9146 29.5029 15.0044C29.5047 15.0026 26.7695 22.9926 17.9496 22.2768Z" fill="white"/>
</svg>
