<svg width="28" height="28" viewBox="0 0 28 28" fill="none" xmlns="http://www.w3.org/2000/svg">
<path fill-rule="evenodd" clip-rule="evenodd" d="M10.2466 0.466981C9.2822 0.281431 7.81427 0.150552 6.71332 0.256581C9.4122 0.975587 11.9942 2.31254 13.9493 4.35856C17.8199 8.41084 17.7541 13.8779 12.6607 16.2984C12.2312 16.5021 12.1456 16.7208 12.4929 17.0919C14.364 19.2904 18.1885 20.064 21.6016 19.0087C23.9763 18.2731 26.8364 16.1112 27.3334 14.0072C27.3334 13.9276 27.3318 13.8481 27.3269 13.7686C27.2051 11.6662 25.4113 9.60697 24.0076 8.1673C22.3175 6.43606 17.731 1.90996 10.2466 0.466981Z" fill="#8556AA"/>
<path d="M16.7173 20.6853C7.57892 19.9431 9.9569 10.9124 9.9569 10.9124C11.7852 10.8362 14.5121 12.0208 15.6739 12.5708C16.6235 10.0129 15.748 6.90656 13.314 4.35856C11.3853 2.33905 8.84444 1.01204 6.18505 0.286404C0.152062 1.03192 0.226117 13.9111 0.226117 13.9111C0.216243 28.2746 6.53887 27.7876 7.3979 27.7776C16.7173 27.6683 27.3334 18.515 27.3318 14.0038C27.3318 14.0038 24.8205 21.343 16.7173 20.6853Z" fill="#8556AA"/>
</svg>
